#!OML:ASF F:\VICON\USERDATA\INSTALL\Justin_Nancy\Justin_Nancy.ASF
:FULLY-SPECIFIED
:DEGREES
174
root -1.54114 17.3316 6.4231 -3.19818 -33.8457 3.12303
lowerback 7.96808 -1.71189 -2.66596
upperback 0.647187 -2.40443 3.34774
thorax -3.54194 -1.14196 5.25059
lowerneck -15.3033 -3.86925 -11.1402
upperneck 21.0873 -3.70412 4.4933
head 9.49721 -2.16046 2.93047
rclavicle -4.37326e-014 1.59028e-015
rhumerus -41.9956 -22.4241 -69.7233
rradius 26.3589
rwrist 10.999
rhand -14.0182 11.7606
rfingers 7.12502
rthumb 12.1116 -17.8689
lclavicle -4.37326e-014 1.59028e-015
lhumerus -25.6237 8.74566 84.1995
lradius 32.4539
lwrist -5.94079
lhand -16.5139 27.0318
lfingers 7.12502
lthumb 9.7044 56.7883
rfemur -22.3469 2.00784 22.5234
rtibia 25.6408
rfoot 1.41194 -5.40714
rtoes 9.15097
lfemur 1.55232 -4.92566 -19.541
ltibia 50.1925
lfoot 34.429 -17.1291
ltoes 6.62752
175
root -1.70711 17.3553 6.607 -3.21715 -34.1157 2.37638
lowerback 8.40577 -1.53091 -2.09853
upperback 0.736517 -2.11327 3.48122
thorax -3.74095 -1.00251 5.05479
lowerneck -15.3758 -3.90792 -11.0317
upperneck 21.2621 -3.77947 4.48352
head 9.57563 -2.19108 2.90026
rclavicle -3.17062e-014 4.77083e-015
rhumerus -42.0344 -22.2864 -69.5905
rradius 26.3919
rwrist 11.7054
rhand -13.9495 11.3052
rfingers 7.12502
rthumb 12.1778 -18.3203
lclavicle -3.17062e-014 4.77083e-015
lhumerus -26.0533 8.14076 84.3681
lradius 32.5712
lwrist -5.72795
lhand -16.1239 27.3176
lfingers 7.12502
lthumb 10.0807 57.0561
rfemur -20.9902 2.58926 23.4489
rtibia 25.7991
rfoot 0.648131 -5.66294
rtoes 9.97354
lfemur 0.163795 -4.73945 -18.6946
ltibia 52.7344
lfoot 34.9713 -17.1152
ltoes 8.47265
176
root -1.86902 17.378 6.79264 -3.33244 -34.1751 2.2467
lowerback 8.51062 -1.34986 -1.89928
upperback 0.823075 -1.85834 3.39642
thorax -3.74438 -0.880503 4.82574
lowerneck -15.2841 -4.00061 -10.8769
upperneck 21.2136 -3.96845 4.52537
head 9.55409 -2.26143 2.86477
rclavicle -6.13251e-014 9.54166e-015
rhumerus -41.8493 -22.1393 -69.7741
rradius 26.4143
rwrist 12.3159
rhand -13.6441 12.0493
rfingers 7.12502
rthumb 12.4722 -17.5585
lclavicle -6.13251e-014 9.54166e-015
lhumerus -26.2888 7.52749 84.5367
lradius 32.6194
lwrist -5.6886
lhand -15.8742 27.3903
lfingers 7.12502
lthumb 10.3215 57.117
rfemur -19.8924 2.77774 23.7647
rtibia 25.8862
rfoot -0.0916193 -5.83221
rtoes 10.6101
lfemur -1.55775 -4.80583 -18.5219
ltibia 55.2047
lfoot 33.6202 -16.2542
ltoes 9.05805
177
root -2.03221 17.4006 6.9762 -3.41455 -34.1517 2.14183
lowerback 8.42384 -1.27787 -1.90325
upperback 1.00054 -1.76595 3.42201
thorax -3.51911 -0.842404 4.83671
lowerneck -15.0543 -4.01863 -10.9033
upperneck 20.8908 -4.03692 4.66179
head 9.40681 -2.27585 2.90745
rclavicle 3.58806e-014 -9.54166e-015
rhumerus -41.0488 -21.7613 -70.2212
rradius 26.1669
rwrist 12.3475
rhand -13.135 13.518
rfingers 7.12502
rthumb 12.9631 -16.0593
lclavicle 3.58806e-014 -9.54166e-015
lhumerus -26.3035 7.04982 84.831
lradius 32.4176
lwrist -5.42326
lhand -16.0816 27.2123
lfingers 7.12502
lthumb 10.1214 56.9489
rfemur -18.7629 3.03078 24.0183
rtibia 25.9204
rfoot -0.985776 -6.42026
rtoes 10.914
lfemur -3.28895 -4.91783 -18.3619
ltibia 57.5709
lfoot 31.1117 -14.9933
ltoes 10.571
178
root -2.19408 17.4151 7.1506 -3.06408 -34.3028 1.43236
lowerback 8.29934 -1.10271 -1.3441
upperback 1.20286 -1.48654 3.45841
thorax -3.27971 -0.7186 4.51731
lowerneck -15.2057 -4.10283 -10.6956
upperneck 20.834 -4.24726 4.92678
head 9.4314 -2.32425 2.93661
rclavicle -1.2921e-015 -9.54166e-015
rhumerus -40.1834 -21.9822 -70.6292
rradius 25.7751
rwrist 12.5399
rhand -13.1262 13.9634
rfingers 7.12502
rthumb 12.9716 -15.6133
lclavicle -1.2921e-015 -9.54166e-015
lhumerus -26.0253 6.07273 85.0365
lradius 31.8737
lwrist -5.62628
lhand -16.5627 26.9414
lfingers 7.12502
lthumb 9.6573 56.7
rfemur -17.6848 3.57707 24.8412
rtibia 25.7945
rfoot -1.74869 -6.93205
rtoes 11.8774
lfemur -5.13199 -4.71952 -17.5504
ltibia 59.8883
lfoot 27.3621 -14.935
ltoes 8.80088
179
root -2.3524 17.4319 7.33353 -2.75195 -34.5568 0.834115
lowerback 8.17347 -0.988319 -0.908015
upperback 1.27722 -1.29546 3.59721
thorax -3.15564 -0.631685 4.38936
lowerneck -15.1326 -4.09068 -10.4595
upperneck 20.8163 -4.24956 4.72002
head 9.4015 -2.32972 2.82547
rclavicle 3.44891e-014 -2.22639e-014
rhumerus -39.3822 -21.2136 -71.2013
rradius 25.5365
rwrist 12.3442
rhand -13.723 13.2623
rfingers 7.12502
rthumb 12.3962 -16.3502
lclavicle 3.44891e-014 -2.22639e-014
lhumerus -26.1597 5.59356 85.246
lradius 31.4544
lwrist -6.16729
lhand -16.8105 26.6498
lfingers 7.12502
lthumb 9.41824 56.4194
rfemur -16.5599 3.88612 25.5979
rtibia 25.5341
rfoot -2.34233 -7.09988
rtoes 11.0164
lfemur -7.02905 -4.42224 -16.9204
ltibia 62.0218
lfoot 22.7541 -15.0591
ltoes 4.71348
